# Blender v3.0.0 OBJ File: ''
# www.blender.org
mtllib questionMark.mtl
o Cube_Cube.001
v -1.000000 -1.000000 1.000000
v -1.000000 1.000000 1.000000
v -1.000000 -1.000000 -1.000000
v -1.000000 1.000000 -1.000000
v 1.000000 -1.000000 1.000000
v 1.000000 1.000000 1.000000
v 1.000000 -1.000000 -1.000000
v 1.000000 1.000000 -1.000000
vt 0.375000 0.000000
vt 0.625000 0.000000
vt 0.625000 0.250000
vt 0.375000 0.250000
vt 0.625000 0.500000
vt 0.375000 0.500000
vt 0.625000 0.750000
vt 0.375000 0.750000
vt 0.625000 1.000000
vt 0.375000 1.000000
vt 0.125000 0.500000
vt 0.125000 0.750000
vt 0.875000 0.500000
vt 0.875000 0.750000
vn -1.0000 0.0000 0.0000
vn 0.0000 0.0000 -1.0000
vn 1.0000 0.0000 0.0000
vn 0.0000 0.0000 1.0000
vn 0.0000 -1.0000 0.0000
vn 0.0000 1.0000 0.0000
usemtl None
s off
f 1/1/1 2/2/1 4/3/1 3/4/1
f 3/4/2 4/3/2 8/5/2 7/6/2
f 7/6/3 8/5/3 6/7/3 5/8/3
f 5/8/4 6/7/4 2/9/4 1/10/4
f 3/11/5 7/6/5 5/8/5 1/12/5
f 8/5/6 4/13/6 2/14/6 6/7/6
o Cube.001_Cube.002
v -1.000000 3.000000 1.000000
v -1.000000 5.000000 1.000000
v -1.000000 3.000000 -1.000000
v -1.000000 5.000000 -1.000000
v 1.000000 3.000000 1.000000
v 1.000000 5.000000 1.000000
v 1.000000 3.000000 -1.000000
v 1.000000 5.000000 -1.000000
v -1.000000 5.000000 1.000000
v -1.000000 5.000000 -1.000000
v 1.000000 5.000000 1.000000
v 1.000000 5.000000 -1.000000
v -1.000000 7.000000 1.000000
v -1.000000 7.000000 -1.000000
v 1.000000 7.000000 1.000000
v 1.000000 7.000000 -1.000000
v -1.000000 9.000000 1.000000
v -1.000000 9.000000 -1.000000
v 1.000000 9.000000 1.000000
v 1.000000 9.000000 -1.000000
v -1.000000 7.000000 3.000000
v 1.000000 7.000000 3.000000
v -1.000000 9.000000 3.000000
v 1.000000 9.000000 3.000000
v -1.000000 7.000000 1.000000
v -1.000000 9.000000 1.000000
v 1.000000 9.000000 1.000000
v -1.000000 7.000000 3.000000
v -1.000000 9.000000 3.000000
v 1.000000 9.000000 3.000000
v -1.000000 11.000000 1.000000
v 1.000000 11.000000 1.000000
v -1.000000 11.000000 3.000000
v 1.000000 11.000000 3.000000
v -1.000000 9.000000 5.000000
v 1.000000 9.000000 5.000000
v -1.000000 11.000000 5.000000
v 1.000000 11.000000 5.000000
v 1.000000 11.000000 1.000000
v -1.000000 11.000000 3.000000
v 1.000000 11.000000 3.000000
v -1.000000 11.000000 5.000000
v 1.000000 11.000000 5.000000
v -1.000000 13.000000 3.000000
v 1.000000 13.000000 3.000000
v -1.000000 13.000000 5.000000
v 1.000000 13.000000 5.000000
v 1.000000 11.000000 3.000000
v -1.000000 13.000000 3.000000
v 1.000000 13.000000 3.000000
v -1.000000 13.000000 5.000000
v 1.000000 13.000000 5.000000
v -1.000000 15.000000 3.000000
v 1.000000 15.000000 3.000000
v -1.000000 15.000000 5.000000
v 1.000000 15.000000 5.000000
v -1.000000 13.000000 1.000000
v 1.000000 13.000000 1.000000
v -1.000000 15.000000 1.000000
v 1.000000 15.000000 1.000000
v -1.000000 17.000000 3.000000
v 1.000000 17.000000 3.000000
v -1.000000 17.000000 1.000000
v 1.000000 17.000000 1.000000
v -1.000000 15.000000 -1.000000
v 1.000000 15.000000 -1.000000
v -1.000000 17.000000 -1.000000
v 1.000000 17.000000 -1.000000
v -1.000000 15.000000 -3.000000
v 1.000000 15.000000 -3.000000
v -1.000000 17.000000 -3.000000
v 1.000000 17.000000 -3.000000
v -1.000000 13.000000 -1.000000
v 1.000000 13.000000 -1.000000
v -1.000000 13.000000 -3.000000
v 1.000000 13.000000 -3.000000
v -1.000000 15.000000 -5.000000
v 1.000000 15.000000 -5.000000
v -1.000000 13.000000 -5.000000
v 1.000000 13.000000 -5.000000
v -1.000000 11.000000 -3.000000
v 1.000000 11.000000 -3.000000
v -1.000000 11.000000 -5.000000
v 1.000000 11.000000 -5.000000
vt 0.375000 0.000000
vt 0.625000 0.000000
vt 0.625000 0.250000
vt 0.375000 0.250000
vt 0.625000 0.500000
vt 0.375000 0.500000
vt 0.625000 0.750000
vt 0.375000 0.750000
vt 0.625000 1.000000
vt 0.375000 1.000000
vt 0.125000 0.500000
vt 0.125000 0.750000
vt 0.625000 0.250000
vt 0.625000 0.500000
vt 0.625000 0.750000
vt 0.625000 0.500000
vt 0.625000 0.750000
vt 0.625000 0.000000
vt 0.625000 1.000000
vt 0.625000 0.500000
vt 0.625000 0.750000
vt 0.625000 0.000000
vt 0.625000 0.250000
vt 0.625000 1.000000
vt 0.875000 0.500000
vt 0.875000 0.750000
vt 0.625000 0.000000
vt 0.625000 0.250000
vt 0.625000 0.750000
vt 0.625000 0.750000
vt 0.625000 1.000000
vt 0.625000 1.000000
vt 0.625000 0.750000
vt 0.625000 0.750000
vt 0.875000 0.750000
vt 0.875000 0.750000
vt 0.625000 0.750000
vt 0.625000 0.000000
vt 0.625000 0.000000
vt 0.625000 0.000000
vt 0.625000 0.000000
vt 0.625000 1.000000
vt 0.625000 1.000000
vt 0.625000 1.000000
vt 0.875000 0.750000
vt 0.625000 0.750000
vt 0.625000 0.000000
vt 0.625000 0.000000
vt 0.625000 0.000000
vt 0.625000 0.000000
vt 0.625000 1.000000
vt 0.625000 0.750000
vt 0.625000 0.750000
vt 0.625000 1.000000
vt 0.625000 0.750000
vt 0.625000 0.750000
vt 0.625000 0.000000
vt 0.625000 0.000000
vt 0.625000 0.000000
vt 0.625000 0.000000
vt 0.625000 0.750000
vt 0.625000 1.000000
vt 0.875000 0.750000
vt 0.625000 0.750000
vt 0.625000 0.750000
vt 0.625000 0.750000
vt 0.625000 0.750000
vt 0.625000 1.000000
vt 0.875000 0.750000
vt 0.875000 0.750000
vt 0.875000 0.750000
vt 0.625000 0.750000
vt 0.625000 0.000000
vt 0.625000 0.000000
vt 0.625000 0.750000
vt 0.625000 1.000000
vt 0.625000 0.750000
vt 0.875000 0.750000
vt 0.875000 0.750000
vt 0.625000 0.750000
vt 0.625000 1.000000
vt 0.625000 0.000000
vt 0.625000 0.000000
vt 0.875000 0.750000
vt 0.625000 0.750000
vt 0.625000 0.000000
vt 0.625000 0.000000
vt 0.625000 0.750000
vt 0.625000 0.750000
vt 0.875000 0.750000
vt 0.875000 0.750000
vt 0.625000 0.000000
vt 0.625000 0.000000
vt 0.625000 0.000000
vt 0.625000 0.000000
vt 0.625000 0.750000
vt 0.625000 0.750000
vt 0.625000 0.750000
vt 0.625000 0.750000
vt 0.875000 0.750000
vt 0.875000 0.750000
vt 0.875000 0.750000
vt 0.875000 0.750000
vt 0.625000 0.000000
vt 0.625000 0.000000
vt 0.625000 0.000000
vt 0.625000 0.000000
vt 0.625000 0.000000
vt 0.625000 0.750000
vt 0.875000 0.750000
vt 0.875000 0.750000
vt 0.625000 0.750000
vt 0.625000 0.000000
vt 0.875000 0.750000
vt 0.625000 0.750000
vt 0.625000 0.750000
vt 0.875000 0.750000
vt 0.875000 0.750000
vt 0.625000 0.750000
vt 0.875000 0.750000
vt 0.625000 0.750000
vt 0.625000 0.000000
vt 0.625000 0.000000
vn -1.0000 0.0000 0.0000
vn 0.0000 0.0000 -1.0000
vn 1.0000 0.0000 0.0000
vn 0.0000 0.0000 1.0000
vn 0.0000 -1.0000 0.0000
vn 0.0000 1.0000 0.0000
usemtl None
s off
f 9/15/7 10/16/7 12/17/7 11/18/7
f 11/18/8 12/17/8 16/19/8 15/20/8
f 15/20/9 16/19/9 14/21/9 13/22/9
f 13/22/10 14/21/10 10/23/10 9/24/10
f 11/25/11 15/20/11 13/22/11 9/26/11
f 16/19/10 12/17/10 18/27/10 20/28/10
f 19/29/9 20/28/9 24/30/9 23/31/9
f 14/21/10 16/19/10 20/28/10 19/29/10
f 12/17/10 10/16/10 17/32/10 18/27/10
f 10/23/10 14/21/10 19/29/10 17/33/10
f 23/31/9 24/30/9 28/34/9 27/35/9
f 18/27/7 17/32/7 21/36/7 22/37/7
f 17/33/10 19/29/10 23/31/10 21/38/10
f 20/28/8 18/27/8 22/37/8 24/30/8
f 28/34/12 26/39/12 25/40/12 27/35/12
f 22/37/7 21/36/7 25/41/7 26/42/7
f 23/31/9 27/35/9 32/43/9 30/44/9
f 24/30/8 22/37/8 26/42/8 28/34/8
f 29/45/10 30/44/10 32/43/10 31/46/10
f 32/43/10 27/35/10 35/47/10 38/48/10
f 21/38/11 23/31/11 30/44/11 29/45/11
f 27/35/10 25/40/10 34/49/10 35/47/10
f 35/47/8 34/49/8 39/50/8 40/51/8
f 34/52/7 33/53/7 36/54/7 37/55/7
f 25/41/10 21/36/10 33/53/10 34/52/10
f 21/38/10 29/45/10 36/56/10 33/57/10
f 29/45/10 31/46/10 37/58/10 36/56/10
f 31/46/10 32/43/10 38/48/10 37/58/10
f 40/51/12 39/50/12 41/59/12 42/60/12
f 34/52/7 37/55/7 41/61/7 39/62/7
f 38/48/9 35/47/9 40/51/9 42/60/9
f 41/61/7 37/55/7 43/63/7 45/64/7
f 43/65/10 44/66/10 46/67/10 45/68/10
f 38/48/9 42/60/9 46/67/9 44/66/9
f 37/58/11 38/48/11 44/66/11 43/65/11
f 42/60/10 40/51/10 47/69/10 49/70/10
f 48/71/7 50/72/7 54/73/7 52/74/7
f 41/61/10 45/64/10 50/72/10 48/71/10
f 45/68/10 46/67/10 51/75/10 50/76/10
f 46/67/10 42/60/10 49/70/10 51/75/10
f 42/60/10 41/59/10 48/77/10 49/70/10
f 49/70/10 53/78/10 58/79/10 56/80/10
f 51/75/9 49/70/9 53/78/9 55/81/9
f 50/76/10 51/75/10 55/81/10 54/82/10
f 49/70/8 48/77/8 52/83/8 53/78/8
f 58/79/11 57/84/11 65/85/11 66/86/11
f 52/74/10 54/73/10 59/87/10 57/88/10
f 53/78/10 52/83/10 57/84/10 58/79/10
f 55/81/10 53/78/10 58/79/10 60/89/10
f 54/82/10 55/81/10 60/89/10 59/90/10
f 62/91/12 61/92/12 63/93/12 64/94/12
f 60/89/9 58/79/9 62/91/9 64/94/9
f 59/90/10 60/89/10 64/94/10 63/95/10
f 57/88/7 59/87/7 63/96/7 61/97/7
f 66/86/8 65/85/8 67/98/8 68/99/8
f 57/88/7 61/97/7 67/100/7 65/101/7
f 62/91/9 68/99/9 72/102/9 70/103/9
f 62/91/9 58/79/9 66/86/9 68/99/9
f 69/104/12 70/103/12 72/102/12 71/105/12
f 61/92/10 62/91/10 70/103/10 69/104/10
f 67/100/7 71/106/7 75/107/7 73/108/7
f 67/100/7 61/97/7 69/109/7 71/106/7
f 76/110/9 74/111/9 78/112/9 80/113/9
f 71/105/12 72/102/12 76/110/12 75/114/12
f 68/99/11 67/98/11 73/115/11 74/111/11
f 72/102/9 68/99/9 74/111/9 76/110/9
f 78/112/8 77/116/8 79/117/8 80/113/8
f 83/118/7 77/119/7 85/120/7 87/121/7
f 73/108/7 75/107/7 79/122/7 77/119/7
f 75/114/12 76/110/12 80/113/12 79/117/12
f 82/123/11 81/124/11 83/125/11 84/126/11
f 74/111/10 73/115/10 81/124/10 82/123/10
f 73/108/7 77/119/7 83/118/7 81/127/7
f 78/112/9 74/111/9 82/123/9 84/126/9
f 85/128/8 86/129/8 88/130/8 87/131/8
f 77/116/12 78/112/12 86/129/12 85/128/12
f 84/126/10 83/125/10 89/132/10 90/133/10
f 78/112/9 84/126/9 88/130/9 86/129/9
f 90/133/11 89/132/11 91/134/11 92/135/11
f 88/130/9 84/126/9 90/133/9 92/135/9
f 83/118/7 87/121/7 91/136/7 89/137/7
f 87/131/8 88/130/8 92/135/8 91/134/8
